<svg width="188" height="40" viewBox="0 0 188 40" fill="none" xmlns="http://www.w3.org/2000/svg">
<path d="M45.1378 27V13.9091H47.8608V18.831H47.9439C48.0632 18.5668 48.2358 18.2983 48.4616 18.0256C48.6918 17.7486 48.9901 17.5185 49.3565 17.3352C49.7273 17.1477 50.1875 17.054 50.7372 17.054C51.4531 17.054 52.1136 17.2415 52.7188 17.6165C53.3239 17.9872 53.8075 18.5476 54.1697 19.2976C54.532 20.0433 54.7131 20.9787 54.7131 22.1037C54.7131 23.1989 54.5362 24.1236 54.1825 24.8778C53.8331 25.6278 53.3558 26.1967 52.7507 26.5845C52.1499 26.968 51.4766 27.1598 50.7308 27.1598C50.2024 27.1598 49.7528 27.0724 49.3821 26.8977C49.0156 26.723 48.7152 26.5036 48.4808 26.2393C48.2464 25.9709 48.0675 25.7003 47.9439 25.4276H47.8224V27H45.1378ZM47.8033 22.0909C47.8033 22.6747 47.8842 23.1839 48.0462 23.6186C48.2081 24.0533 48.4425 24.392 48.7493 24.6349C49.0561 24.8736 49.429 24.9929 49.8679 24.9929C50.3111 24.9929 50.6861 24.8714 50.9929 24.6286C51.2997 24.3814 51.532 24.0405 51.6896 23.6058C51.8516 23.1669 51.9325 22.6619 51.9325 22.0909C51.9325 21.5241 51.8537 21.0256 51.696 20.5952C51.5384 20.1648 51.3061 19.8281 50.9993 19.5852C50.6925 19.3423 50.3153 19.2209 49.8679 19.2209C49.4247 19.2209 49.0497 19.3381 48.7429 19.5724C48.4403 19.8068 48.2081 20.1392 48.0462 20.5696C47.8842 21 47.8033 21.5071 47.8033 22.0909ZM60.2844 27.1918C59.2745 27.1918 58.4052 26.9872 57.6765 26.5781C56.9521 26.1648 56.3938 25.581 56.0018 24.8267C55.6097 24.0682 55.4137 23.1712 55.4137 22.1357C55.4137 21.1257 55.6097 20.2393 56.0018 19.4766C56.3938 18.7138 56.9457 18.1193 57.6573 17.6932C58.3732 17.267 59.2127 17.054 60.1758 17.054C60.8235 17.054 61.4265 17.1584 61.9847 17.3672C62.5472 17.5717 63.0373 17.8807 63.4549 18.294C63.8768 18.7074 64.2049 19.2273 64.4393 19.8537C64.6736 20.4759 64.7908 21.2045 64.7908 22.0398V22.7876H56.5003V21.1001H62.2276C62.2276 20.7081 62.1424 20.3608 61.9719 20.0582C61.8015 19.7557 61.565 19.5192 61.2624 19.3487C60.9641 19.174 60.6168 19.0866 60.2205 19.0866C59.8072 19.0866 59.4407 19.1825 59.1211 19.3743C58.8057 19.5618 58.5586 19.8153 58.3796 20.1349C58.2006 20.4503 58.109 20.8018 58.1048 21.1896V22.794C58.1048 23.2798 58.1942 23.6996 58.3732 24.0533C58.5565 24.407 58.8143 24.6797 59.1467 24.8714C59.479 25.0632 59.8732 25.1591 60.3292 25.1591C60.6317 25.1591 60.9087 25.1165 61.1601 25.0312C61.4116 24.946 61.6268 24.8182 61.8057 24.6477C61.9847 24.4773 62.1211 24.2685 62.2148 24.0213L64.7333 24.1875C64.6055 24.7926 64.3434 25.321 63.9471 25.7727C63.555 26.2202 63.0479 26.5696 62.4258 26.821C61.8079 27.0682 61.0941 27.1918 60.2844 27.1918ZM68.5708 21.3239V27H65.8478V17.1818H68.443V18.9141H68.558C68.7754 18.343 69.1397 17.8913 69.6511 17.5589C70.1624 17.2223 70.7825 17.054 71.5112 17.054C72.193 17.054 72.7874 17.2031 73.2946 17.5014C73.8017 17.7997 74.1958 18.2259 74.4771 18.7798C74.7583 19.3295 74.899 19.9858 74.899 20.7486V27H72.1759V21.2344C72.1802 20.6335 72.0268 20.1648 71.7157 19.8281C71.4046 19.4872 70.9764 19.3168 70.4309 19.3168C70.0644 19.3168 69.7406 19.3956 69.4593 19.5533C69.1823 19.7109 68.965 19.9411 68.8073 20.2436C68.6539 20.5419 68.5751 20.902 68.5708 21.3239ZM81.5474 17.1818V19.2273H75.6347V17.1818H81.5474ZM76.9771 14.8295H79.7001V23.983C79.7001 24.2344 79.7384 24.4304 79.8151 24.571C79.8918 24.7074 79.9984 24.8033 80.1347 24.8587C80.2754 24.9141 80.4373 24.9418 80.6205 24.9418C80.7484 24.9418 80.8762 24.9311 81.0041 24.9098C81.1319 24.8842 81.2299 24.8651 81.2981 24.8523L81.7264 26.8786C81.59 26.9212 81.3982 26.9702 81.1511 27.0256C80.9039 27.0852 80.6035 27.1214 80.2498 27.1342C79.5936 27.1598 79.0183 27.0724 78.5239 26.8722C78.0339 26.6719 77.6525 26.3608 77.3798 25.9389C77.107 25.517 76.9728 24.9844 76.9771 24.3409V14.8295ZM85.5351 21.3239V27H82.8121V13.9091H85.4584V18.9141H85.5735C85.7951 18.3345 86.153 17.8807 86.6473 17.5526C87.1417 17.2202 87.7617 17.054 88.5074 17.054C89.1892 17.054 89.7837 17.2031 90.2908 17.5014C90.8022 17.7955 91.1985 18.2195 91.4797 18.7734C91.7652 19.3232 91.9059 19.9815 91.9016 20.7486V27H89.1786V21.2344C89.1829 20.6293 89.0294 20.1584 88.7184 19.8217C88.4115 19.4851 87.9811 19.3168 87.4272 19.3168C87.0564 19.3168 86.7283 19.3956 86.4428 19.5533C86.1615 19.7109 85.94 19.9411 85.778 20.2436C85.6204 20.5419 85.5394 20.902 85.5351 21.3239ZM99.6207 22.8196V17.1818H102.344V27H99.7294V25.2166H99.6271C99.4055 25.7919 99.0369 26.2543 98.5213 26.6037C98.0099 26.9531 97.3856 27.1278 96.6484 27.1278C95.9922 27.1278 95.4147 26.9787 94.9162 26.6804C94.4176 26.3821 94.0277 25.9581 93.7464 25.4084C93.4694 24.8587 93.3288 24.2003 93.3245 23.4332V17.1818H96.0476V22.9474C96.0518 23.527 96.2074 23.9851 96.5142 24.3217C96.821 24.6584 97.2322 24.8267 97.7478 24.8267C98.076 24.8267 98.3828 24.7521 98.6683 24.603C98.9538 24.4496 99.1839 24.2237 99.3586 23.9254C99.5376 23.6271 99.625 23.2585 99.6207 22.8196ZM105.483 30.6818C105.138 30.6818 104.814 30.6541 104.511 30.5987C104.213 30.5476 103.966 30.4815 103.77 30.4006L104.383 28.3679C104.703 28.4659 104.991 28.5192 105.246 28.5277C105.506 28.5362 105.73 28.4766 105.918 28.3487C106.109 28.2209 106.265 28.0036 106.384 27.6967L106.544 27.2812L103.022 17.1818H105.886L107.918 24.392H108.021L110.072 17.1818H112.955L109.139 28.0611C108.956 28.5895 108.707 29.0497 108.391 29.4418C108.08 29.8381 107.686 30.1428 107.209 30.3558C106.731 30.5732 106.156 30.6818 105.483 30.6818ZM116.352 21.3239V27H113.629V17.1818H116.224V18.9141H116.339C116.556 18.343 116.921 17.8913 117.432 17.5589C117.943 17.2223 118.563 17.054 119.292 17.054C119.974 17.054 120.568 17.2031 121.075 17.5014C121.583 17.7997 121.977 18.2259 122.258 18.7798C122.539 19.3295 122.68 19.9858 122.68 20.7486V27H119.957V21.2344C119.961 20.6335 119.808 20.1648 119.497 19.8281C119.185 19.4872 118.757 19.3168 118.212 19.3168C117.845 19.3168 117.521 19.3956 117.24 19.5533C116.963 19.7109 116.746 19.9411 116.588 20.2436C116.435 20.5419 116.356 20.902 116.352 21.3239ZM128.542 27.1918C127.549 27.1918 126.69 26.9808 125.966 26.5589C125.246 26.1328 124.69 25.5405 124.298 24.782C123.906 24.0192 123.71 23.1349 123.71 22.1293C123.71 21.1151 123.906 20.2287 124.298 19.4702C124.69 18.7074 125.246 18.1151 125.966 17.6932C126.69 17.267 127.549 17.054 128.542 17.054C129.535 17.054 130.391 17.267 131.112 17.6932C131.836 18.1151 132.394 18.7074 132.786 19.4702C133.178 20.2287 133.374 21.1151 133.374 22.1293C133.374 23.1349 133.178 24.0192 132.786 24.782C132.394 25.5405 131.836 26.1328 131.112 26.5589C130.391 26.9808 129.535 27.1918 128.542 27.1918ZM128.555 25.0824C129.007 25.0824 129.384 24.9545 129.686 24.6989C129.989 24.4389 130.217 24.0852 130.37 23.6378C130.528 23.1903 130.607 22.6811 130.607 22.1101C130.607 21.5391 130.528 21.0298 130.37 20.5824C130.217 20.1349 129.989 19.7812 129.686 19.5213C129.384 19.2614 129.007 19.1314 128.555 19.1314C128.099 19.1314 127.715 19.2614 127.404 19.5213C127.097 19.7812 126.865 20.1349 126.708 20.5824C126.554 21.0298 126.477 21.5391 126.477 22.1101C126.477 22.6811 126.554 23.1903 126.708 23.6378C126.865 24.0852 127.097 24.4389 127.404 24.6989C127.715 24.9545 128.099 25.0824 128.555 25.0824ZM134.425 27V17.1818H137.148V27H134.425ZM135.793 15.9162C135.388 15.9162 135.041 15.782 134.751 15.5135C134.465 15.2408 134.323 14.9148 134.323 14.5355C134.323 14.1605 134.465 13.8388 134.751 13.5703C135.041 13.2976 135.388 13.1612 135.793 13.1612C136.198 13.1612 136.543 13.2976 136.828 13.5703C137.118 13.8388 137.263 14.1605 137.263 14.5355C137.263 14.9148 137.118 15.2408 136.828 15.5135C136.543 15.782 136.198 15.9162 135.793 15.9162ZM142.227 27.1598C141.481 27.1598 140.806 26.968 140.201 26.5845C139.6 26.1967 139.123 25.6278 138.769 24.8778C138.42 24.1236 138.245 23.1989 138.245 22.1037C138.245 20.9787 138.426 20.0433 138.788 19.2976C139.151 18.5476 139.632 17.9872 140.233 17.6165C140.838 17.2415 141.501 17.054 142.221 17.054C142.771 17.054 143.229 17.1477 143.595 17.3352C143.966 17.5185 144.264 17.7486 144.49 18.0256C144.72 18.2983 144.895 18.5668 145.014 18.831H145.097V13.9091H147.814V27H145.129V25.4276H145.014C144.886 25.7003 144.705 25.9709 144.471 26.2393C144.241 26.5036 143.94 26.723 143.57 26.8977C143.203 27.0724 142.756 27.1598 142.227 27.1598ZM143.09 24.9929C143.529 24.9929 143.9 24.8736 144.202 24.6349C144.509 24.392 144.744 24.0533 144.905 23.6186C145.072 23.1839 145.155 22.6747 145.155 22.0909C145.155 21.5071 145.074 21 144.912 20.5696C144.75 20.1392 144.516 19.8068 144.209 19.5724C143.902 19.3381 143.529 19.2209 143.09 19.2209C142.643 19.2209 142.266 19.3423 141.959 19.5852C141.652 19.8281 141.42 20.1648 141.262 20.5952C141.104 21.0256 141.026 21.5241 141.026 22.0909C141.026 22.6619 141.104 23.1669 141.262 23.6058C141.424 24.0405 141.656 24.3814 141.959 24.6286C142.266 24.8714 142.643 24.9929 143.09 24.9929ZM149.333 27V17.1818H152.056V27H149.333ZM150.701 15.9162C150.296 15.9162 149.948 15.782 149.659 15.5135C149.373 15.2408 149.23 14.9148 149.23 14.5355C149.23 14.1605 149.373 13.8388 149.659 13.5703C149.948 13.2976 150.296 13.1612 150.701 13.1612C151.105 13.1612 151.451 13.2976 151.736 13.5703C152.026 13.8388 152.171 14.1605 152.171 14.5355C152.171 14.9148 152.026 15.2408 151.736 15.5135C151.451 15.782 151.105 15.9162 150.701 15.9162ZM156.317 27.1854C155.69 27.1854 155.132 27.0767 154.642 26.8594C154.152 26.6378 153.764 26.3118 153.479 25.8814C153.197 25.4467 153.057 24.9055 153.057 24.2578C153.057 23.7124 153.157 23.2543 153.357 22.8835C153.557 22.5128 153.83 22.2145 154.175 21.9886C154.521 21.7628 154.913 21.5923 155.351 21.4773C155.795 21.3622 156.259 21.2812 156.745 21.2344C157.316 21.1747 157.776 21.1193 158.126 21.0682C158.475 21.0128 158.729 20.9318 158.886 20.8253C159.044 20.7187 159.123 20.5611 159.123 20.3523V20.3139C159.123 19.9091 158.995 19.5959 158.739 19.3743C158.488 19.1527 158.13 19.0419 157.665 19.0419C157.175 19.0419 156.785 19.1506 156.496 19.3679C156.206 19.581 156.014 19.8494 155.92 20.1733L153.402 19.9688C153.53 19.3722 153.781 18.8565 154.156 18.4219C154.531 17.983 155.015 17.6463 155.607 17.4119C156.204 17.1733 156.894 17.054 157.678 17.054C158.224 17.054 158.746 17.1179 159.244 17.2457C159.747 17.3736 160.192 17.5717 160.58 17.8402C160.972 18.1087 161.281 18.4538 161.507 18.8757C161.733 19.2933 161.846 19.794 161.846 20.3778V27H159.263V25.6385H159.187C159.029 25.9453 158.818 26.2159 158.554 26.4503C158.29 26.6804 157.972 26.8615 157.601 26.9936C157.231 27.1214 156.802 27.1854 156.317 27.1854ZM157.097 25.3061C157.497 25.3061 157.851 25.2273 158.158 25.0696C158.464 24.9077 158.705 24.6903 158.88 24.4176C159.055 24.1449 159.142 23.8359 159.142 23.4908V22.4489C159.057 22.5043 158.94 22.5554 158.79 22.6023C158.646 22.6449 158.481 22.6854 158.298 22.7237C158.115 22.7578 157.932 22.7898 157.748 22.8196C157.565 22.8452 157.399 22.8686 157.25 22.8899C156.93 22.9368 156.651 23.0114 156.413 23.1136C156.174 23.2159 155.989 23.3544 155.856 23.5291C155.724 23.6996 155.658 23.9126 155.658 24.1683C155.658 24.5391 155.793 24.8224 156.061 25.0185C156.334 25.2102 156.679 25.3061 157.097 25.3061ZM164.83 27.1662C164.408 27.1662 164.046 27.017 163.743 26.7188C163.445 26.4162 163.296 26.054 163.296 25.6321C163.296 25.2145 163.445 24.8565 163.743 24.5582C164.046 24.2599 164.408 24.1108 164.83 24.1108C165.239 24.1108 165.597 24.2599 165.904 24.5582C166.211 24.8565 166.364 25.2145 166.364 25.6321C166.364 25.9134 166.292 26.1712 166.147 26.4055C166.006 26.6357 165.821 26.821 165.591 26.9616C165.361 27.098 165.107 27.1662 164.83 27.1662ZM177.033 17.1818L173.601 27H170.532L167.1 17.1818H169.976L172.015 24.2067H172.118L174.15 17.1818H177.033ZM180.43 21.3239V27H177.707V17.1818H180.302V18.9141H180.417C180.634 18.343 180.998 17.8913 181.51 17.5589C182.021 17.2223 182.641 17.054 183.37 17.054C184.052 17.054 184.646 17.2031 185.153 17.5014C185.66 17.7997 186.055 18.2259 186.336 18.7798C186.617 19.3295 186.758 19.9858 186.758 20.7486V27H184.035V21.2344C184.039 20.6335 183.886 20.1648 183.574 19.8281C183.263 19.4872 182.835 19.3168 182.29 19.3168C181.923 19.3168 181.599 19.3956 181.318 19.5533C181.041 19.7109 180.824 19.9411 180.666 20.2436C180.513 20.5419 180.434 20.902 180.43 21.3239Z" fill="white"/>
<g clip-path="url(#clip0_64_1824)">
<path d="M20 40C31.0457 40 40 31.0457 40 20C40 8.9543 31.0457 0 20 0C8.9543 0 0 8.9543 0 20C0 31.0457 8.9543 40 20 40Z" fill="#04B4FF"/>
<path d="M27.3185 22.4312C26.961 22.4312 26.6258 22.4312 26.2897 22.4312C26.0488 22.4312 25.8233 22.4073 25.6956 22.1542C25.5678 21.901 25.6741 21.6984 25.8199 21.4966C26.6112 20.4044 27.3974 19.3079 28.1879 18.2149C28.5196 17.7564 28.9775 17.7405 29.3195 18.1901C30.1717 19.3097 31.0136 20.4381 31.8598 21.5621C31.9944 21.7391 32.0502 21.9302 31.9456 22.1444C31.841 22.3586 31.6652 22.4338 31.4457 22.4338H30.3038C30.074 23.3374 29.936 24.2216 29.6265 25.0376C28.1613 28.9087 25.4315 31.2709 21.4423 31.8736C17.784 32.4267 14.6899 31.1514 12.2388 28.3034C10.8773 26.7227 10.0954 24.8447 9.84766 22.7392C9.82022 22.502 9.75164 22.4108 9.51501 22.4259C9.1978 22.4471 8.87801 22.4338 8.55994 22.4338C8.32931 22.4338 8.14413 22.3453 8.04553 22.1249C7.94694 21.9046 8.02067 21.7223 8.15013 21.5435C8.95088 20.4337 9.74735 19.3194 10.5507 18.2113C10.879 17.7582 11.3531 17.7511 11.6884 18.1936C12.5311 19.3079 13.3679 20.4266 14.2107 21.5417C14.3453 21.7187 14.4121 21.9072 14.3204 22.1223C14.2287 22.3374 14.034 22.4312 13.806 22.4303H12.6915C12.8262 23.5232 13.1953 24.5714 13.7717 25.4987C14.6617 26.9633 16.0118 28.068 17.5963 28.6282C18.1501 28.8282 18.5394 28.5397 18.5394 27.9343C18.5394 24.3287 18.5411 20.7231 18.5445 17.1174C18.5445 16.9156 18.4819 16.828 18.3019 16.7484C16.5015 15.9518 15.4006 14.0172 15.6347 12.0577C15.8833 9.98317 17.3785 8.36621 19.335 8.0538C21.5186 7.70509 23.6371 9.08398 24.2484 11.2505C24.5601 12.3213 24.4783 13.473 24.0188 14.4854C23.5593 15.4978 22.7543 16.2998 21.7578 16.7377C21.5598 16.8263 21.4869 16.9236 21.4869 17.1502C21.4943 20.7062 21.4963 24.262 21.4929 27.8175C21.4929 28.5813 21.8701 28.8618 22.5543 28.5839C25.1657 27.5219 26.745 25.5642 27.3048 22.7285C27.3144 22.6297 27.319 22.5305 27.3185 22.4312ZM21.474 12.5675C21.4766 12.3686 21.441 12.1711 21.3692 11.9865C21.2974 11.8019 21.1908 11.6338 21.0557 11.492C20.9205 11.3502 20.7595 11.2374 20.5819 11.1603C20.4042 11.0831 20.2136 11.0431 20.0208 11.0426C19.8277 11.0407 19.6361 11.0781 19.4571 11.1528C19.278 11.2274 19.1149 11.3377 18.9771 11.4775C18.8394 11.6172 18.7297 11.7836 18.6542 11.9671C18.5788 12.1507 18.5392 12.3478 18.5376 12.5471C18.538 12.9485 18.6909 13.3337 18.9634 13.62C19.2359 13.9063 19.6064 14.0708 19.9951 14.0782C20.1885 14.0799 20.3802 14.042 20.5594 13.9669C20.7385 13.8917 20.9015 13.7807 21.0389 13.6403C21.1764 13.4999 21.2856 13.3329 21.3602 13.1488C21.4349 12.9646 21.4736 12.7671 21.474 12.5675Z" fill="white"/>
</g>
<defs>
<clipPath id="clip0_64_1824">
<rect width="40" height="40" fill="white"/>
</clipPath>
</defs>
</svg>
