<svg width="29" height="28" viewBox="0 0 29 28" fill="none" xmlns="http://www.w3.org/2000/svg">
<path d="M10.5629 14C11.5519 14 12.5188 13.7067 13.3412 13.1572C14.1635 12.6076 14.8045 11.8266 15.1829 10.9128C15.5614 9.999 15.6604 8.9935 15.4674 8.02345C15.2743 7.0534 14.798 6.16238 14.0985 5.46306C13.3991 4.76375 12.508 4.28755 11.5379 4.0947C10.5678 3.90185 9.56235 4.001 8.64862 4.37962C7.73489 4.75824 6.95396 5.39932 6.40459 6.22178C5.85522 7.04425 5.56208 8.01115 5.56226 9.00022C5.56365 10.326 6.09097 11.597 7.02849 12.5344C7.96602 13.4717 9.23714 13.9988 10.5629 14Z" fill="white"/>
<path d="M17.1044 18.1309C15.8372 16.8312 14.2114 15.9387 12.4345 15.5674C10.6577 15.1961 8.81052 15.363 7.12896 16.0466C5.44739 16.7302 4.00777 17.8996 2.994 19.4053C1.98023 20.911 1.43832 22.6848 1.4375 24.5C1.4375 24.7321 1.52969 24.9546 1.69378 25.1187C1.85788 25.2828 2.08044 25.375 2.3125 25.375H18.815C19.0471 25.375 19.2696 25.2828 19.4337 25.1187C19.5978 24.9546 19.69 24.7321 19.69 24.5C19.6934 23.5722 19.5502 22.6496 19.2656 21.7665C18.842 20.4012 18.1014 19.1554 17.1044 18.1309Z" fill="white"/>
<path d="M21.125 14.4375C23.1788 14.4375 24.8438 12.7726 24.8438 10.7188C24.8438 8.66494 23.1788 7 21.125 7C19.0712 7 17.4062 8.66494 17.4062 10.7188C17.4062 12.7726 19.0712 14.4375 21.125 14.4375Z" fill="white"/>
<path d="M21.125 15.4612C19.9521 15.4656 18.8019 15.7851 17.7947 16.3861C17.9846 16.5559 18.1762 16.723 18.3556 16.9067C19.547 18.1313 20.4321 19.6202 20.9386 21.252C21.1121 21.7892 21.24 22.3401 21.321 22.8987H26.8125C27.0446 22.8987 27.2671 22.8066 27.4312 22.6425C27.5953 22.4784 27.6875 22.2558 27.6875 22.0237C27.6856 20.2838 26.9936 18.6157 25.7633 17.3854C24.533 16.1551 22.8649 15.4631 21.125 15.4612Z" fill="white"/>
</svg>
