<svg width="29" height="28" viewBox="0 0 29 28" fill="none" xmlns="http://www.w3.org/2000/svg">
<path d="M23.1875 2.625H5.6875C4.99131 2.625 4.32363 2.90156 3.83134 3.39384C3.33906 3.88613 3.0625 4.55381 3.0625 5.25V22.75C3.0625 23.4462 3.33906 24.1139 3.83134 24.6062C4.32363 25.0984 4.99131 25.375 5.6875 25.375H23.1875C23.8837 25.375 24.5514 25.0984 25.0437 24.6062C25.5359 24.1139 25.8125 23.4462 25.8125 22.75V5.25C25.8125 4.55381 25.5359 3.88613 25.0437 3.39384C24.5514 2.90156 23.8837 2.625 23.1875 2.625ZM7.4375 12.25H9.1875C9.41956 12.25 9.64212 12.3422 9.80622 12.5063C9.97031 12.6704 10.0625 12.8929 10.0625 13.125V14.875C10.0625 15.1071 9.97031 15.3296 9.80622 15.4937C9.64212 15.6578 9.41956 15.75 9.1875 15.75H7.4375C7.20544 15.75 6.98288 15.6578 6.81878 15.4937C6.65469 15.3296 6.5625 15.1071 6.5625 14.875V13.125C6.5625 12.8929 6.65469 12.6704 6.81878 12.5063C6.98288 12.3422 7.20544 12.25 7.4375 12.25ZM6.5625 9.625V7.875C6.5625 7.64294 6.65469 7.42038 6.81878 7.25628C6.98288 7.09219 7.20544 7 7.4375 7H9.1875C9.41956 7 9.64212 7.09219 9.80622 7.25628C9.97031 7.42038 10.0625 7.64294 10.0625 7.875V9.625C10.0625 9.85706 9.97031 10.0796 9.80622 10.2437C9.64212 10.4078 9.41956 10.5 9.1875 10.5H7.4375C7.20544 10.5 6.98288 10.4078 6.81878 10.2437C6.65469 10.0796 6.5625 9.85706 6.5625 9.625ZM7.4375 17.5H9.1875C9.41956 17.5 9.64212 17.5922 9.80622 17.7563C9.97031 17.9204 10.0625 18.1429 10.0625 18.375V20.125C10.0625 20.3571 9.97031 20.5796 9.80622 20.7437C9.64212 20.9078 9.41956 21 9.1875 21H7.4375C7.20544 21 6.98288 20.9078 6.81878 20.7437C6.65469 20.5796 6.5625 20.3571 6.5625 20.125V18.375C6.5625 18.1429 6.65469 17.9204 6.81878 17.7563C6.98288 17.5922 7.20544 17.5 7.4375 17.5ZM12.6875 18.375H21.4375C21.6696 18.375 21.8921 18.4672 22.0562 18.6313C22.2203 18.7954 22.3125 19.0179 22.3125 19.25C22.3125 19.4821 22.2203 19.7046 22.0562 19.8687C21.8921 20.0328 21.6696 20.125 21.4375 20.125H12.6875C12.4554 20.125 12.2329 20.0328 12.0688 19.8687C11.9047 19.7046 11.8125 19.4821 11.8125 19.25C11.8125 19.0179 11.9047 18.7954 12.0688 18.6313C12.2329 18.4672 12.4554 18.375 12.6875 18.375ZM11.8125 14C11.8125 13.7679 11.9047 13.5454 12.0688 13.3813C12.2329 13.2172 12.4554 13.125 12.6875 13.125H21.4375C21.6696 13.125 21.8921 13.2172 22.0562 13.3813C22.2203 13.5454 22.3125 13.7679 22.3125 14C22.3125 14.2321 22.2203 14.4546 22.0562 14.6187C21.8921 14.7828 21.6696 14.875 21.4375 14.875H12.6875C12.4554 14.875 12.2329 14.7828 12.0688 14.6187C11.9047 14.4546 11.8125 14.2321 11.8125 14ZM21.4375 9.625H12.6875C12.4554 9.625 12.2329 9.53281 12.0688 9.36872C11.9047 9.20462 11.8125 8.98206 11.8125 8.75C11.8125 8.51794 11.9047 8.29538 12.0688 8.13128C12.2329 7.96719 12.4554 7.875 12.6875 7.875H21.4375C21.6696 7.875 21.8921 7.96719 22.0562 8.13128C22.2203 8.29538 22.3125 8.51794 22.3125 8.75C22.3125 8.98206 22.2203 9.20462 22.0562 9.36872C21.8921 9.53281 21.6696 9.625 21.4375 9.625Z" fill="white"/>
</svg>
