<svg width="28" height="28" viewBox="0 0 28 28" fill="none" xmlns="http://www.w3.org/2000/svg">
<g clip-path="url(#clip0_16_18)">
<path d="M27.9109 12.3874C27.8514 12.2451 27.7663 12.1156 27.6578 12.0071L24.1589 8.50824C23.7028 8.05324 22.9654 8.05324 22.5093 8.50824C22.0531 8.96439 22.0531 9.70289 22.5093 10.1579L24.0178 11.6664H17.5007C16.8556 11.6664 16.3341 12.189 16.3341 12.833C16.3341 13.477 16.8556 13.9997 17.5007 13.9997H24.0177L22.5092 15.5082C22.0531 15.9643 22.0531 16.7028 22.5092 17.1578C22.7367 17.3865 23.0354 17.4997 23.3341 17.4997C23.6328 17.4997 23.9314 17.3865 24.1589 17.1578L27.6578 13.659C27.7663 13.5516 27.8514 13.4221 27.9109 13.2786C28.0287 12.9941 28.0287 12.6721 27.9109 12.3874Z" fill="white"/>
<path d="M19.8341 16.3334C19.1889 16.3334 18.6674 16.856 18.6674 17.5V23.3334H14.0008V4.66665C14.0008 4.15215 13.6624 3.69715 13.1689 3.549L9.11706 2.33335H18.6674V8.1667C18.6674 8.8107 19.1889 9.33335 19.8341 9.33335C20.4792 9.33335 21.0007 8.8107 21.0007 8.1667V1.1667C21.0007 0.522648 20.4792 0 19.8341 0H1.16741C1.12541 0 1.08806 0.0175 1.04726 0.0221484C0.992411 0.028 0.942263 0.0372969 0.889763 0.0501484C0.767263 0.0816484 0.656411 0.1295 0.552614 0.194797C0.526966 0.211148 0.495466 0.212297 0.470966 0.230945C0.46156 0.238 0.45806 0.250852 0.448708 0.257852C0.32156 0.358148 0.215411 0.480648 0.138411 0.6265C0.12206 0.658 0.11856 0.691852 0.105763 0.7245C0.0684114 0.813148 0.0276145 0.8995 0.0136145 0.9975C0.00776294 1.0325 0.0182629 1.06515 0.0171145 1.099C0.0159661 1.12235 0.000762939 1.14335 0.000762939 1.16665V24.5C0.000762939 25.0565 0.393911 25.5349 0.938763 25.6434L12.6054 27.9767C12.6813 27.9931 12.7583 28.0001 12.8341 28.0001C13.1012 28.0001 13.3637 27.9079 13.5737 27.7352C13.8432 27.5136 14.0007 27.1834 14.0007 26.8334V25.6667H19.8341C20.4792 25.6667 21.0007 25.1441 21.0007 24.5001V17.5C21.0007 16.856 20.4792 16.3334 19.8341 16.3334Z" fill="white"/>
</g>
<defs>
<clipPath id="clip0_16_18">
<rect width="28" height="28" fill="white"/>
</clipPath>
</defs>
</svg>
