<svg width="29" height="28" viewBox="0 0 29 28" fill="none" xmlns="http://www.w3.org/2000/svg">
<path d="M15.7292 2.33331C16.3735 2.33331 16.8958 2.85565 16.8958 3.49998V4.66665H20.3958C21.0402 4.66665 21.5625 5.18899 21.5625 5.83331V8.9533L14.883 7.04487C14.6736 6.98501 14.4514 6.98501 14.242 7.04487L7.5625 8.9533V5.83331C7.5625 5.18899 8.08484 4.66665 8.72917 4.66665H12.2292V3.49998C12.2292 2.85565 12.7515 2.33331 13.3958 2.33331H15.7292Z" fill="white"/>
<path d="M14.242 9.37821C14.4514 9.31835 14.6736 9.31835 14.883 9.37821L23.0496 11.7116C23.3671 11.8022 23.6312 12.0232 23.7766 12.3195C23.922 12.616 23.935 12.9601 23.8124 13.2666L21.5392 18.5276C21.6397 18.571 21.7394 18.6173 21.8379 18.6667L24.4177 19.9565C24.9939 20.2447 25.2276 20.9454 24.9394 21.5217C24.6513 22.0981 23.9504 22.3316 23.3741 22.0435L20.7945 20.7536C19.8091 20.261 18.6493 20.261 17.664 20.7536L17.1713 21C15.5291 21.8211 13.596 21.8211 11.9538 21L11.4611 20.7536C10.4758 20.261 9.31598 20.261 8.33063 20.7536L5.75096 22.0435C5.17465 22.3316 4.47387 22.0981 4.18571 21.5217C3.89756 20.9454 4.13115 20.2447 4.70746 19.9565L7.28713 18.6667C7.38572 18.6173 7.48534 18.571 7.58589 18.5277L5.31262 13.2666C5.19001 12.9601 5.20301 12.616 5.34839 12.3195C5.49377 12.0232 5.75791 11.8022 6.07534 11.7116L14.242 9.37821Z" fill="white"/>
<path d="M4.18571 25.0217C3.89756 24.4454 4.13115 23.7447 4.70746 23.4565L7.28713 22.1667C8.92938 21.3456 10.8624 21.3456 12.5046 22.1667L12.9973 22.413C13.9827 22.9056 15.1424 22.9056 16.1278 22.413L16.6205 22.1667C18.2627 21.3456 20.1957 21.3456 21.8379 22.1667L24.4177 23.4565C24.9939 23.7447 25.2276 24.4454 24.9394 25.0217C24.6513 25.5981 23.9504 25.8316 23.3741 25.5435L20.7945 24.2536C19.8091 23.761 18.6493 23.761 17.664 24.2536L17.1713 24.5C15.5291 25.3211 13.596 25.3211 11.9538 24.5L11.4611 24.2536C10.4758 23.761 9.31598 23.761 8.33063 24.2536L5.75096 25.5435C5.17465 25.8316 4.47387 25.5981 4.18571 25.0217Z" fill="white"/>
</svg>
