<svg width="29" height="28" viewBox="0 0 29 28" fill="none" xmlns="http://www.w3.org/2000/svg">
<path d="M7.57299 7.58336C7.57299 6.66038 7.84669 5.75812 8.35947 4.99069C8.87225 4.22327 9.60108 3.62513 10.4538 3.27192C11.3065 2.91871 12.2448 2.82629 13.1501 3.00636C14.0553 3.18642 14.8868 3.63088 15.5395 4.28352C16.1921 4.93617 16.6366 5.76769 16.8167 6.67293C16.9967 7.57818 16.9043 8.51649 16.5511 9.36921C16.1979 10.2219 15.5997 10.9508 14.8323 11.4635C14.0649 11.9763 13.1626 12.25 12.2397 12.25C11.002 12.25 9.815 11.7584 8.93983 10.8832C8.06466 10.008 7.57299 8.82103 7.57299 7.58336ZM19.2957 16.5434C19.2804 16.4356 19.228 16.3366 19.1475 16.2634C18.5352 15.6899 17.8136 15.2456 17.0259 14.9569C16.2382 14.6683 15.4004 14.5413 14.5625 14.5834H9.89582C5.15916 14.5834 3.47916 18.0484 3.47916 21.0234C3.47916 23.6834 4.89082 25.0834 7.56249 25.0834H13.6292C13.6752 25.0847 13.7209 25.076 13.7632 25.0578C13.8055 25.0397 13.8434 25.0126 13.8742 24.9784C13.9391 24.9107 13.9765 24.8213 13.9792 24.7275V22.75C13.9796 22.2861 14.1642 21.8412 14.4925 21.5134L19.1942 16.7884C19.2579 16.7226 19.2942 16.635 19.2957 16.5434ZM15.7292 22.75V25.6667H18.6458L23.9413 20.3945L21.0025 17.4557L15.7292 22.75ZM25.8885 16.8129L24.5818 15.5062C24.3632 15.2889 24.0675 15.1669 23.7593 15.1669C23.4511 15.1669 23.1554 15.2889 22.9368 15.5062L21.818 16.6379L24.7568 19.5767L25.8885 18.4579C26.1054 18.2393 26.2272 17.9439 26.2272 17.6359C26.2272 17.328 26.1054 17.0314 25.8885 16.8129Z" fill="white"/>
</svg>
